<?xml version="1.0" standalone="no"?>
<!DOCTYPE svg PUBLIC "-//W3C//DTD SVG 20010904//EN"
 "http://www.w3.org/TR/2001/REC-SVG-20010904/DTD/svg10.dtd">
<svg version="1.0" xmlns="http://www.w3.org/2000/svg"
 width="3564.000000pt" height="1614.000000pt" viewBox="0 0 3564.000000 1614.000000"
 preserveAspectRatio="xMidYMid meet">
<metadata>
Created by potrace 1.15, written by Peter Selinger 2001-2017
</metadata>
<g transform="translate(0.000000,1614.000000) scale(0.100000,-0.100000)"
fill="#000000" stroke="none">
<path d="M1080 8295 l0 -6335 16760 0 16760 0 0 6335 0 6335 -16760 0 -16760
0 0 -6335z m32680 0 l0 -5445 -15920 0 -15920 0 0 5445 0 5445 15920 0 15920
0 0 -5445z"/>
<path d="M6841 8150 c-1656 -1898 -3011 -3452 -3011 -3455 0 -3 674 -4 1497
-3 l1498 3 1517 1720 1518 1720 0 1732 c0 953 -2 1733 -4 1733 -3 0 -1360
-1553 -3015 -3450z"/>
<path d="M19142 11093 l3 -438 473 -3 472 -2 0 440 0 440 -475 0 -475 0 2
-437z"/>
<path d="M23692 9103 l3 -2428 488 -3 487 -2 0 567 1 568 80 85 c44 47 142
148 218 225 l139 140 112 -230 c62 -126 166 -338 230 -470 336 -685 394 -803
411 -842 l18 -43 541 -2 c457 -3 540 -1 540 11 0 13 -56 124 -255 506 -43 83
-113 218 -155 300 -43 83 -113 220 -157 305 -44 85 -114 220 -155 300 -96 187
-306 589 -330 630 -4 8 -12 26 -18 40 -6 14 -28 58 -50 99 l-40 73 54 57 c54
58 336 366 480 526 44 50 113 124 151 165 39 41 88 95 109 120 22 25 94 104
160 176 67 72 147 159 179 195 56 62 73 97 41 85 -9 -3 -273 -6 -587 -6 l-572
0 -130 -152 c-133 -155 -318 -368 -428 -492 -33 -38 -86 -99 -116 -136 -31
-37 -105 -123 -166 -192 -60 -68 -121 -138 -135 -155 -14 -17 -56 -67 -95
-111 l-70 -80 -3 1299 -2 1299 -490 0 -490 0 2 -2427z"/>
<path d="M27170 11090 l0 -440 485 0 485 0 0 440 0 440 -485 0 -485 0 0 -440z"/>
<path d="M30800 11090 l0 -440 490 0 490 0 0 440 0 440 -490 0 -490 0 0 -440z"/>
<path d="M15470 9085 l0 -2415 523 2 522 3 3 1008 2 1007 1050 0 c833 0 1050
3 1050 13 1 9 0 767 0 855 0 9 -217 12 -1052 12 l-1053 0 0 530 0 530 1208 0
1207 0 -2 433 -3 432 -1727 3 -1728 2 0 -2415z"/>
<path d="M20556 11204 c-3 -9 -6 -856 -6 -1883 l0 -1867 25 -63 c105 -270 294
-488 535 -621 128 -71 263 -124 375 -149 38 -8 201 -31 223 -31 2 0 0 -4 -3
-10 -4 -7 70 -10 213 -10 175 0 225 3 248 15 16 8 43 15 61 15 50 0 178 27
261 56 100 34 310 143 376 195 245 194 419 467 471 739 3 19 10 46 15 60 5 14
16 82 25 152 12 99 15 246 15 682 l0 556 -455 0 -455 0 0 -537 c0 -446 -3
-551 -15 -613 -58 -281 -160 -401 -383 -450 -106 -24 -146 -24 -253 -4 -107
20 -206 70 -252 126 -65 81 -87 131 -138 308 -9 34 -13 239 -16 867 l-4 823
983 2 983 3 3 343 2 342 -985 0 -985 0 0 485 0 485 -429 0 c-382 0 -430 -2
-435 -16z"/>
<path d="M30225 10340 c-189 -17 -360 -76 -507 -173 -89 -60 -221 -186 -269
-257 l-29 -43 0 191 0 192 -460 0 -460 0 0 -1790 0 -1790 484 0 c432 0 485 2
490 16 3 9 6 455 6 993 0 607 4 1007 10 1058 44 351 263 574 609 624 55 8 156
10 288 7 l203 -5 0 493 0 494 -142 -2 c-79 0 -179 -4 -223 -8z"/>
<path d="M19140 8963 c0 -709 3 -1960 7 -2780 l6 -1493 462 0 462 0 6 1487 c4
817 7 2068 7 2780 l0 1293 -475 0 -475 0 0 -1287z"/>
<path d="M27170 8460 l0 -1790 485 0 485 0 0 1790 0 1790 -485 0 -485 0 0
-1790z"/>
<path d="M30802 8463 l3 -1788 488 -3 487 -2 0 1790 0 1790 -490 0 -490 0 2
-1787z"/>
<path d="M10590 7109 l0 -801 87 -102 c49 -55 90 -103 94 -106 3 -3 36 -41 75
-86 38 -44 116 -133 174 -199 58 -65 118 -134 134 -154 17 -20 53 -61 80 -91
28 -31 90 -101 138 -155 47 -55 140 -161 205 -235 66 -74 172 -196 237 -270
65 -74 134 -152 152 -173 19 -21 34 -43 34 -48 0 -5 281 -9 700 -9 686 0 700
0 700 19 0 11 -18 39 -39 63 -21 24 -61 68 -87 99 -27 31 -96 110 -154 174
-58 65 -129 146 -157 179 -108 125 -165 190 -442 507 -391 447 -457 522 -526
599 -33 37 -100 113 -150 170 -49 57 -111 127 -136 155 -25 27 -58 66 -75 86
-32 39 -432 496 -498 569 -23 25 -66 74 -96 109 -30 36 -74 86 -98 112 -23 26
-56 64 -73 86 -17 21 -40 47 -52 59 -12 12 -65 71 -117 132 -52 61 -98 111
-102 111 -5 1 -8 -360 -8 -800z"/>
</g>
</svg>
